<?xml version="1.0" standalone="no"?>
<!DOCTYPE svg PUBLIC "-//W3C//DTD SVG 20010904//EN"
 "http://www.w3.org/TR/2001/REC-SVG-20010904/DTD/svg10.dtd">
<svg version="1.0" xmlns="http://www.w3.org/2000/svg"
 width="100.000000pt" height="100.000000pt" viewBox="0 0 500.000000 500.000000"
 preserveAspectRatio="xMidYMid meet">

<g transform="translate(0.000000,500.000000) scale(0.100000,-0.100000)"
fill="#000000" stroke="none">
<path d="M2505 3155 c0 -253 1 -355 2 -227 2 128 2 335 0 460 -1 125 -2 20 -2
-233z"/>
<path d="M1465 3190 c-33 -4 -118 -8 -188 -9 -120 -1 -156 -11 -88 -24 56 -11
65 -47 71 -262 l5 -190 53 -3 52 -3 0 224 0 224 58 17 c74 20 240 21 308 1
108 -32 189 -111 215 -210 19 -70 13 -167 -16 -238 -7 -16 -2 -18 46 -15 l53
3 19 50 c26 68 20 182 -13 250 -44 91 -122 150 -237 180 -61 16 -229 18 -338
5z"/>
<path d="M2590 3171 c0 -5 13 -11 30 -14 16 -4 36 -17 45 -30 19 -30 34 -154
37 -312 2 -100 3 -88 8 73 l5 193 89 -191 89 -190 58 0 58 0 -43 93 c-24 50
-75 158 -114 240 l-71 147 -95 0 c-53 0 -96 -4 -96 -9z"/>
<path d="M3535 2945 c-48 -130 -85 -238 -83 -241 3 -2 41 91 84 208 l79 213 3
-213 2 -213 53 3 52 3 5 190 c6 215 15 251 71 262 65 13 34 23 -69 23 l-110 0
-87 -235z"/>
<path d="M1391 2544 c1 -48 4 -69 8 -54 10 35 44 38 69 6 25 -33 40 -34 19 -2
-14 21 -14 26 -2 36 19 16 19 54 0 70 -8 6 -32 14 -55 17 l-40 6 1 -79z m88
38 c15 -28 -5 -52 -44 -52 -33 0 -35 2 -35 35 0 33 2 35 35 35 23 0 38 -6 44
-18z"/>
<path d="M1635 2609 c-51 -29 -59 -76 -20 -114 49 -50 125 -20 125 48 0 53
-60 91 -105 66z m81 -34 c21 -32 7 -69 -30 -87 -55 -24 -103 53 -60 96 25 25
71 20 90 -9z"/>
<path d="M1848 2614 c-5 -4 -8 -38 -8 -76 l0 -68 44 0 c24 0 51 3 60 6 18 7
22 49 6 59 -7 4 -6 13 1 27 8 16 8 24 -4 35 -16 16 -88 29 -99 17z m87 -39 c0
-16 -8 -21 -37 -23 -35 -3 -38 -1 -38 23 0 24 3 26 38 23 29 -2 37 -7 37 -23z
m0 -49 c16 -12 17 -16 6 -30 -8 -9 -28 -16 -47 -16 -31 0 -34 3 -34 30 0 26 4
30 28 30 16 0 37 -6 47 -14z"/>
<path d="M2073 2545 c0 -44 2 -61 4 -37 2 23 2 59 0 80 -2 20 -4 1 -4 -43z"/>
<path d="M2300 2560 l0 -62 -46 56 c-25 31 -49 56 -55 56 -5 0 -9 -31 -9 -70
0 -83 18 -95 22 -15 l3 56 43 -56 c24 -30 47 -55 53 -55 12 0 12 137 -1 145
-6 4 -10 -17 -10 -55z"/>
<path d="M2792 2543 l1 -78 6 59 6 59 23 -41 c13 -23 27 -44 32 -47 5 -3 20
14 34 37 l26 43 0 -52 c0 -29 5 -53 10 -53 6 0 10 30 10 70 0 39 -4 70 -10 70
-5 0 -19 -17 -29 -37 -37 -69 -36 -69 -70 -9 -17 31 -33 56 -36 56 -3 0 -4
-35 -3 -77z"/>
<path d="M3094 2609 c-11 -18 -64 -129 -64 -135 0 -13 20 -1 25 16 9 30 77 28
99 -2 l17 -23 -7 25 c-4 14 -19 49 -34 79 -20 40 -29 51 -36 40z m36 -76 c0
-8 -12 -13 -30 -13 -35 0 -35 1 -14 42 l16 32 14 -25 c7 -13 13 -30 14 -36z"/>
<path d="M3277 2548 c-34 -73 -39 -104 -10 -60 21 30 89 32 98 2 3 -11 10 -20
15 -20 5 0 2 17 -7 38 -22 52 -53 112 -58 112 -2 0 -20 -33 -38 -72z m61 2
c11 -30 10 -30 -23 -30 l-35 0 17 35 c18 39 27 38 41 -5z"/>
<path d="M3590 2562 l-5 -63 -43 56 c-24 30 -47 55 -53 55 -5 0 -9 -31 -9 -70
0 -40 4 -70 10 -70 6 0 10 25 10 56 l0 56 48 -59 47 -58 3 37 c2 21 2 57 0 80
-4 38 -4 36 -8 -20z"/>
<path d="M1265 2358 c-2 -7 -6 -80 -7 -163 -4 -174 -13 -199 -73 -226 l-40
-18 170 1 c162 0 168 1 133 15 -60 25 -71 61 -76 246 l-4 157 -50 0 c-30 0
-50 -5 -53 -12z"/>
<path d="M1770 2175 c71 -107 141 -202 154 -210 18 -12 46 -15 127 -13 l104 3
-44 13 c-64 20 -161 121 -245 257 -94 151 -87 145 -163 145 l-63 0 130 -195z"/>
<path d="M2499 1965 c-3 -225 -4 -412 -2 -414 11 -15 13 49 11 415 l-3 409 -6
-410z"/>
<path d="M2701 2285 c-3 -195 -25 -298 -69 -311 -60 -19 -43 -23 118 -23 116
-1 170 3 160 9 -8 5 -26 10 -39 10 -35 0 -95 66 -120 133 -12 33 -28 107 -35
165 l-14 107 -1 -90z"/>
<path d="M3050 2366 c0 -15 148 -318 156 -318 10 0 125 302 121 317 -2 5 -18
-29 -37 -77 -18 -48 -35 -86 -39 -84 -3 2 -24 41 -46 85 l-39 81 -58 0 c-32 0
-58 -2 -58 -4z"/>
<path d="M3618 2217 c-5 -178 -19 -220 -78 -249 -34 -17 -32 -17 135 -17 l170
0 -40 18 c-60 27 -68 52 -74 236 l-6 160 -51 3 -51 3 -5 -154z"/>
</g>
</svg>
